<svg xmlns="http://www.w3.org/2000/svg" viewBox="0 0 1200 630" width="1200" height="630">
  <defs>
    <linearGradient id="bg-grad" x1="0%" y1="0%" x2="100%" y2="100%">
      <stop offset="0%" stop-color="#1a1a2e"/>
      <stop offset="50%" stop-color="#16213e"/>
      <stop offset="100%" stop-color="#1a1a2e"/>
    </linearGradient>
    <linearGradient id="warm-grad" x1="0%" y1="0%" x2="100%" y2="0%">
      <stop offset="0%" stop-color="#ff6b6b"/>
      <stop offset="50%" stop-color="#ffa07a"/>
      <stop offset="100%" stop-color="#ffd93d"/>
    </linearGradient>
    <linearGradient id="keycap-top" x1="0%" y1="0%" x2="0%" y2="100%">
      <stop offset="0%" stop-color="#2a2a3e"/>
      <stop offset="100%" stop-color="#1d1d1f"/>
    </linearGradient>
    <!-- Subtle radial glow behind the icon -->
    <radialGradient id="glow" cx="50%" cy="45%" r="35%">
      <stop offset="0%" stop-color="rgba(255,160,122,0.08)"/>
      <stop offset="100%" stop-color="rgba(255,160,122,0)"/>
    </radialGradient>
  </defs>

  <!-- Background -->
  <rect width="1200" height="630" fill="url(#bg-grad)"/>

  <!-- Subtle glow -->
  <rect width="1200" height="630" fill="url(#glow)"/>

  <!-- Subtle grid pattern for texture -->
  <g opacity="0.03">
    <line x1="0" y1="0" x2="0" y2="630" stroke="#fff" stroke-width="1" transform="translate(100,0)"/>
    <line x1="0" y1="0" x2="0" y2="630" stroke="#fff" stroke-width="1" transform="translate(200,0)"/>
    <line x1="0" y1="0" x2="0" y2="630" stroke="#fff" stroke-width="1" transform="translate(300,0)"/>
    <line x1="0" y1="0" x2="0" y2="630" stroke="#fff" stroke-width="1" transform="translate(400,0)"/>
    <line x1="0" y1="0" x2="0" y2="630" stroke="#fff" stroke-width="1" transform="translate(500,0)"/>
    <line x1="0" y1="0" x2="0" y2="630" stroke="#fff" stroke-width="1" transform="translate(600,0)"/>
    <line x1="0" y1="0" x2="0" y2="630" stroke="#fff" stroke-width="1" transform="translate(700,0)"/>
    <line x1="0" y1="0" x2="0" y2="630" stroke="#fff" stroke-width="1" transform="translate(800,0)"/>
    <line x1="0" y1="0" x2="0" y2="630" stroke="#fff" stroke-width="1" transform="translate(900,0)"/>
    <line x1="0" y1="0" x2="0" y2="630" stroke="#fff" stroke-width="1" transform="translate(1000,0)"/>
    <line x1="0" y1="0" x2="0" y2="630" stroke="#fff" stroke-width="1" transform="translate(1100,0)"/>
    <line x1="0" y1="0" x2="1200" y2="0" stroke="#fff" stroke-width="1" transform="translate(0,100)"/>
    <line x1="0" y1="0" x2="1200" y2="0" stroke="#fff" stroke-width="1" transform="translate(0,200)"/>
    <line x1="0" y1="0" x2="1200" y2="0" stroke="#fff" stroke-width="1" transform="translate(0,300)"/>
    <line x1="0" y1="0" x2="1200" y2="0" stroke="#fff" stroke-width="1" transform="translate(0,400)"/>
    <line x1="0" y1="0" x2="1200" y2="0" stroke="#fff" stroke-width="1" transform="translate(0,500)"/>
  </g>

  <!-- Minimal circle logo (scaled up, centered above title) -->
  <g transform="translate(536, 120) scale(1.2)">
    <!-- Dark circle background -->
    <circle cx="64" cy="64" r="56" fill="#1d1d1f"/>
    <!-- Subtle ring border -->
    <circle cx="64" cy="64" r="56" fill="none" stroke="url(#warm-grad)" stroke-width="2.5" opacity="0.5"/>
    <!-- Chevron -->
    <path d="M38 42 L62 64 L38 86" stroke="#ffa07a" stroke-width="7" stroke-linecap="round" stroke-linejoin="round" fill="none"/>
    <!-- Cursor lines -->
    <rect x="72" y="42" width="6" height="44" rx="3" fill="#6bcb77"/>
    <rect x="84" y="42" width="5" height="44" rx="2.5" fill="#6bcb77" opacity="0.4"/>
  </g>

  <!-- Title: keytun -->
  <text x="600" y="340" text-anchor="middle" font-family="Inter, -apple-system, BlinkMacSystemFont, sans-serif" font-size="72" font-weight="700" letter-spacing="-1" fill="url(#warm-grad)">keytun</text>

  <!-- Tagline -->
  <text x="600" y="400" text-anchor="middle" font-family="Inter, -apple-system, BlinkMacSystemFont, sans-serif" font-size="28" font-weight="400" fill="#8892a4">Think ngrok, but for keystrokes.</text>

  <!-- Terminal snippet decoration -->
  <g transform="translate(340, 445)">
    <!-- Terminal window -->
    <rect width="520" height="100" rx="10" fill="#0d1117" stroke="rgba(255,255,255,0.06)" stroke-width="1"/>
    <!-- Title bar -->
    <rect width="520" height="32" rx="10" fill="#161b22"/>
    <rect y="22" width="520" height="10" fill="#161b22"/>
    <!-- Dots -->
    <circle cx="18" cy="16" r="5" fill="#ff5f57"/>
    <circle cx="36" cy="16" r="5" fill="#febc2e"/>
    <circle cx="54" cy="16" r="5" fill="#28c840"/>
    <!-- Terminal text -->
    <text x="18" y="60" font-family="JetBrains Mono, SF Mono, Fira Code, monospace" font-size="15" fill="#6bcb77">$</text>
    <text x="36" y="60" font-family="JetBrains Mono, SF Mono, Fira Code, monospace" font-size="15" fill="#e8e8e8">keytun host</text>
    <text x="18" y="82" font-family="JetBrains Mono, SF Mono, Fira Code, monospace" font-size="14" fill="#5a6478">Session: </text>
    <text x="108" y="82" font-family="JetBrains Mono, SF Mono, Fira Code, monospace" font-size="14" fill="#ffa07a">brave-falcon-42</text>
  </g>

  <!-- CTA -->
  <text x="600" y="590" text-anchor="middle" font-family="Inter, -apple-system, BlinkMacSystemFont, sans-serif" font-size="18" font-weight="600" fill="#ffa07a">Get started at keytun.com →</text>
</svg>
